<svg xmlns="http://www.w3.org/2000/svg" width="351.24" height="334.684" viewBox="0 0 351.24 334.684">
  <g id="Groupe_9" data-name="Groupe 9" transform="translate(-39.76 -150.159)">
    <g id="Groupe_7" data-name="Groupe 7" transform="translate(-2108.61 -401.883)">
      <g id="Groupe_4" data-name="Groupe 4" transform="translate(146.76 -29.841)">
        <g id="Groupe_2" data-name="Groupe 2" transform="translate(2001.61 581.883)">
          <path id="Rectangle_7" data-name="Rectangle 7" d="M58.691,0h48.927A58.691,58.691,0,0,1,166.31,58.691V92.635a58.692,58.692,0,0,1-58.692,58.692H58.691A58.691,58.691,0,0,1,0,92.636V58.691A58.691,58.691,0,0,1,58.691,0Z" fill="#fff"/>
          <g id="Groupe_1" data-name="Groupe 1" transform="translate(37.324 41.759)">
            <path id="Tracé_1" data-name="Tracé 1" d="M2053.778,671.085C2058.4,683.26,2098,715.233,2098,715.233s12.908-10.486,24.862-21.78c8.947-8.359,17.307-17.161,19.288-22.367,4.693-12.1-.294-29.408-17.6-32.341C2107.314,635.81,2098,653.853,2098,653.853s-9.313-18.042-26.62-15.108a23.549,23.549,0,0,0-7.921,2.787C2052.679,647.544,2049.964,661.113,2053.778,671.085Z" transform="translate(-2052.144 -638.422)" fill="#1f2527"/>
          </g>
        </g>
        <g id="Groupe_3" data-name="Groupe 3" transform="translate(2052.111 751.28)">
          <path id="Tracé_2" data-name="Tracé 2" d="M2123.417,887.878a2.554,2.554,0,1,0,1.352,3.348A2.554,2.554,0,0,0,2123.417,887.878Z" transform="translate(-2083.024 -831.216)" fill="#fff"/>
          <path id="Tracé_3" data-name="Tracé 3" d="M2097.334,859.219a4.84,4.84,0,1,0,2.563,6.347A4.84,4.84,0,0,0,2097.334,859.219Z" transform="translate(-2075.374 -823.677)" fill="#fff"/>
          <path id="Tracé_4" data-name="Tracé 4" d="M2080.674,811.848a7.683,7.683,0,1,0,4.068,10.075A7.683,7.683,0,0,0,2080.674,811.848Z" transform="translate(-2069.985 -811.234)" fill="#fff"/>
        </g>
      </g>
      <g id="Groupe_6" data-name="Groupe 6" transform="translate(-80 -211.312)">
        <path id="Tracé_5" data-name="Tracé 5" d="M2563.2,934.6H2353.576a10.512,10.512,0,0,0-10.482,10.482v106.336a10.512,10.512,0,0,0,10.482,10.482H2371.3l-8.557,36.141,53.72-36.141H2563.2a10.514,10.514,0,0,0,10.483-10.482V945.078A10.514,10.514,0,0,0,2563.2,934.6Z" transform="translate(0 0)" fill="#fff"/>
        <g id="Groupe_5" data-name="Groupe 5" transform="translate(2361.432 948.351)">
          <path id="Tracé_6" data-name="Tracé 6" d="M2556.858,996.6H2371.676a4.6,4.6,0,0,0-4.585,4.586h0a4.6,4.6,0,0,0,4.585,4.585h185.182a4.6,4.6,0,0,0,4.586-4.585h0A4.6,4.6,0,0,0,2556.858,996.6Z" transform="translate(-2367.09 -962.973)" fill="#dde8fd"/>
          <path id="Tracé_7" data-name="Tracé 7" d="M2556.858,1023.463H2371.676a4.586,4.586,0,0,0,0,9.173h185.182a4.586,4.586,0,0,0,0-9.173Z" transform="translate(-2367.09 -969.307)" fill="#dde8fd"/>
          <path id="Tracé_8" data-name="Tracé 8" d="M2556.858,1050.325H2371.676a4.586,4.586,0,0,0,0,9.172h185.182a4.586,4.586,0,0,0,0-9.172Z" transform="translate(-2367.09 -975.641)" fill="#dde8fd"/>
          <path id="Tracé_9" data-name="Tracé 9" d="M2378.835,963.514h78.616a5.459,5.459,0,0,0,0-10.918h-78.616a5.459,5.459,0,1,0,0,10.918Z" transform="translate(-2368.573 -952.596)" fill="#dde8fd"/>
          <path id="Rectangle_8" data-name="Rectangle 8" d="M5.459,0H50.476a5.458,5.458,0,0,1,5.458,5.458v0a5.46,5.46,0,0,1-5.46,5.46H5.459A5.459,5.459,0,0,1,0,5.459v0A5.459,5.459,0,0,1,5.459,0Z" transform="translate(104.82)" fill="#dde8fd"/>
        </g>
      </g>
    </g>
    <g id="Groupe_8" data-name="Groupe 8" transform="translate(-941.769 -869.325)">
      <path id="Tracé_10" data-name="Tracé 10" d="M1277.284,1095.329l-91.663,29.969,54.907-53.517,5.574,13.075,23.594.114Z" fill="#5a6265"/>
      <path id="Tracé_11" data-name="Tracé 11" d="M1185.622,1125.3l71.14-54.119,76.007-17.36Z" fill="#5a6265"/>
      <path id="Tracé_12" data-name="Tracé 12" d="M1240.529,1071.781l-54.907,53.517,36.6-74.973Z" fill="#5a6265"/>
    </g>
  </g>
</svg>
